<svg id="Optimism" xmlns="http://www.w3.org/2000/svg" width="32" height="32" viewBox="0 0 32 32">
  <rect id="Boundary" width="32" height="32" rx="12" transform="translate(0 32) rotate(-90)"
    fill="#ebecff" opacity="0.05" />
  <g id="OP_Mainnet_icon_new" data-name="OP Mainnet icon new" transform="translate(24044 11225)">
    <path id="Path_17765" data-name="Path 17765" d="M0,10A10,10,0,1,1,10,20,10,10,0,0,1,0,10Z"
      transform="translate(-24038 -11219)" fill="#fff" />
    <path id="Path_17766" data-name="Path 17766"
      d="M10,0A10,10,0,1,0,20,10,10,10,0,0,0,10,0Zm0,15.092v4.176A7.179,7.179,0,0,1,10,4.908V.733a7.179,7.179,0,1,1,0,14.359Zm3.443-5.124v.064a7.407,7.407,0,0,0-3.411,3.411H9.968a7.408,7.408,0,0,0-3.411-3.411V9.968A7.407,7.407,0,0,0,9.968,6.557h.064A7.407,7.407,0,0,0,13.443,9.968Z"
      transform="translate(-24038 -11219)" fill="#ff0420" />
  </g>
</svg>